P3
20 20
255
0 0 0 0 0 0 0 0 0 0 0 0 0 0 0 0 0 0 28 28 27 176 176 74 207 207 69 212 212 56 210 210 41 200 200 26 159 159 11 1 1 1 0 0 0 0 0 0 0 0 0 0 0 0 0 0 0 0 0 0 
0 0 0 0 0 0 0 0 0 0 0 0 90 90 69 210 210 112 230 230 107 245 245 98 246 246 83 246 246 67 245 245 50 243 243 33 240 240 15 218 218 1 190 190 0 44 44 0 0 0 0 0 0 0 0 0 0 0 0 0 
0 0 0 0 0 0 0 0 0 180 180 120 231 231 139 248 248 137 250 250 124 251 251 109 252 252 92 252 252 75 252 252 57 251 251 39 248 248 20 245 245 3 240 240 0 214 214 0 146 146 0 0 0 0 0 0 0 0 0 0 
0 0 0 0 0 0 180 180 120 237 237 152 250 250 161 252 252 150 254 254 134 255 255 116 255 255 98 255 255 79 255 255 61 255 255 42 254 254 23 252 252 5 248 248 0 242 242 0 222 222 0 146 146 0 0 0 0 0 0 0 
0 0 0 90 90 69 231 231 139 250 250 161 253 253 170 255 255 155 240 240 129 223 223 103 255 255 99 255 255 80 255 255 62 255 255 43 223 223 22 240 240 5 254 254 0 249 249 0 242 242 0 214 214 0 44 44 0 0 0 0 
0 0 0 210 210 113 248 248 137 252 252 150 255 255 155 255 255 146 59 59 32 11 11 5 230 230 86 255 255 78 255 255 60 230 230 38 11 11 1 59 59 0 255 255 0 254 254 0 248 248 0 240 240 0 190 190 0 0 0 0 
28 28 28 230 230 107 250 250 124 254 254 134 255 255 136 247 247 127 0 0 0 0 0 0 175 175 59 255 255 72 255 255 55 175 175 27 0 0 0 0 0 0 247 247 0 255 255 0 252 252 0 245 245 0 218 218 0 1 1 0 
176 176 74 245 245 98 251 251 109 255 255 116 255 255 118 254 254 114 24 24 10 0 0 0 206 206 62 255 255 64 255 255 47 206 206 25 0 0 0 24 24 0 254 254 0 255 255 0 254 254 0 248 248 0 239 239 0 156 156 0 
207 207 69 246 246 83 252 252 92 255 255 98 255 255 99 255 255 96 190 190 66 149 149 44 255 255 67 255 255 53 255 255 38 255 255 22 149 149 3 190 190 0 255 255 0 255 255 0 255 255 0 250 250 0 241 241 0 195 195 0 
212 212 56 246 246 67 252 252 75 255 255 79 255 255 80 255 255 78 255 255 72 255 255 64 255 255 53 255 255 40 255 255 26 255 255 11 255 255 1 255 255 0 255 255 0 255 255 0 255 255 0 251 251 0 242 242 0 204 204 0 
210 210 41 245 245 50 252 252 57 255 255 61 255 255 62 255 255 60 255 255 55 255 255 47 255 255 38 255 255 26 255 255 14 255 255 2 255 255 0 255 255 0 255 255 0 255 255 0 255 255 0 251 251 0 242 242 0 204 204 0 
200 200 26 243 243 33 251 251 39 255 255 42 204 204 35 251 251 40 255 255 37 255 255 30 255 255 22 255 255 11 255 255 2 255 255 0 255 255 0 255 255 0 251 251 0 204 204 0 255 255 0 250 250 0 241 241 0 195 195 0 
159 159 11 240 240 15 246 246 20 192 192 18 144 144 14 255 255 23 255 255 19 255 255 13 255 255 6 255 255 1 255 255 0 255 255 0 255 255 0 255 255 0 255 255 0 144 144 0 192 192 0 245 245 0 239 239 0 156 156 0 
1 1 1 218 218 1 245 245 3 252 252 5 179 179 3 184 184 4 255 255 3 255 255 1 255 255 0 255 255 0 255 255 0 255 255 0 255 255 0 255 255 0 184 184 0 179 179 0 252 252 0 245 245 0 218 218 0 0 0 0 
0 0 0 190 190 0 240 240 0 248 248 0 254 254 0 139 139 0 154 154 0 253 253 0 255 255 0 255 255 0 255 255 0 255 255 0 253 253 0 154 154 0 139 139 0 254 254 0 248 248 0 240 240 0 190 190 0 0 0 0 
0 0 0 44 44 0 214 214 0 242 242 0 249 249 0 254 254 0 176 176 0 80 80 0 126 126 0 168 168 0 168 168 0 126 126 0 80 80 0 176 176 0 254 254 0 249 249 0 242 242 0 214 214 0 44 44 0 0 0 0 
0 0 0 0 0 0 146 146 0 222 222 0 242 242 0 248 248 0 252 252 0 254 254 0 209 209 0 168 168 0 168 168 0 208 208 0 254 254 0 252 252 0 248 248 0 242 242 0 222 222 0 146 146 0 0 0 0 0 0 0 
0 0 0 0 0 0 0 0 0 146 146 0 214 214 0 240 240 0 245 245 0 248 248 0 250 250 0 251 251 0 251 251 0 250 250 0 248 248 0 245 245 0 240 240 0 214 214 0 146 146 0 0 0 0 0 0 0 0 0 0 
0 0 0 0 0 0 0 0 0 0 0 0 44 44 0 190 190 0 218 218 0 239 239 0 241 241 0 242 242 0 242 242 0 241 241 0 239 239 0 218 218 0 190 190 0 44 44 0 0 0 0 0 0 0 0 0 0 0 0 0 
0 0 0 0 0 0 0 0 0 0 0 0 0 0 0 0 0 0 0 0 0 156 156 0 195 195 0 204 204 0 204 204 0 195 195 0 156 156 0 1 1 0 0 0 0 0 0 0 0 0 0 0 0 0 0 0 0 0 0 0 
